<?xml version="1.0" encoding="iso-8859-1"?>
<!-- Generator: Adobe Illustrator 19.0.0, SVG Export Plug-In . SVG Version: 6.00 Build 0)  -->
<svg version="1.1" id="Capa_1" xmlns="http://www.w3.org/2000/svg" xmlns:xlink="http://www.w3.org/1999/xlink" x="0px" y="0px"
	 viewBox="0 0 488.8 488.8" style="enable-background:new 0 0 488.8 488.8;" xml:space="preserve">
<g>
	<g>
		<path d="M262.6,126.2c-19.3-15.9-40.1-26.4-44.3-28.4c-0.5-0.2-0.8-0.7-0.8-1.2V83.7c1.9-4,3.1-8.2,3.7-12.1
			c0.4,0.3,0.8,0.4,1.3,0.4c1.7,0,4-2.3,6.5-11c2.6-9.1,1-12.1-1.2-12.9c7.2-34.5-9.2-35.6-9.2-35.6s-2.5-4.8-9-8.4
			c-3.8-2.2-8.9-4.1-15.4-4.1c-1,0-2.1,0-3.2,0.1c-2.6,0.1-5.1,0.6-7.4,1.4l0,0c-3,1-5.7,2.5-8.1,4.2c-3,1.9-5.8,4.2-8.4,6.9
			c-4,4.1-7.5,9.3-9,15.8c-1.5,5.6-1.4,11.6,0.8,17.7c-0.2,0-0.4,0-0.6,0c-2.8,0-5.7,2.2-2.6,13.1c2.4,8.5,4.6,10.9,6.3,11
			c0.8,4.9,2.3,10.3,5.2,15.2v11.1c0,0.5-0.3,1-0.8,1.2c-4.2,2-25,12.6-44.3,28.4c-3.5,2.9-5.5,7.2-5.5,11.7v21.3v79.8
			c0,11.8,4.1,23.3,11.7,32.5l16.1,18.9L159,477.2c0.5,6.5,6,11.6,12.5,11.6h41.7c6.6,0,12-5.1,12.5-11.6l14.5-186.9l15.9-18.9
			c7.7-9.2,11.9-20.8,11.9-32.8v-79.5v-21.3C268.1,133.4,266,129.1,262.6,126.2z"/>
		<path d="M276.6,83.9v20.5c0,1.9,2.3,2.8,3.6,1.5L300,86.1h29.2c23.7,0,43-19.2,43-43s-19.2-43-43-43h-39c-23.7,0-43,19.2-43,43
			C247.2,62.1,259.5,78.2,276.6,83.9z M297.3,48.4h-10.6V37.8h10.6V48.4z M322,37.8h10.6v10.6H322V37.8z M304.4,37.8H315v10.6h-10.6
			V37.8z"/>
	</g>
</g>
<g>
</g>
<g>
</g>
<g>
</g>
<g>
</g>
<g>
</g>
<g>
</g>
<g>
</g>
<g>
</g>
<g>
</g>
<g>
</g>
<g>
</g>
<g>
</g>
<g>
</g>
<g>
</g>
<g>
</g>
</svg>
